<svg xmlns="http://www.w3.org/2000/svg" xmlns:xlink="http://www.w3.org/1999/xlink" viewBox="0 0 54.39 45.84"><defs><style>.cls-1{opacity:0.1;}.cls-2{fill:#c0c0f6;}.cls-3{fill:url(#linear-gradient);}.cls-4{fill:#f0f0f9;}.cls-5{opacity:0.5;}.cls-6{opacity:0;}.cls-7{fill:#fdcde7;}.cls-8{opacity:0.14;}.cls-9{opacity:0.29;}.cls-10{opacity:0.43;}.cls-11{opacity:0.57;}.cls-12{opacity:0.71;}.cls-13{opacity:0.86;}.cls-14{fill:#ffdf75;}.cls-15{fill:#f5e981;}.cls-16{fill:#ff61cb;}.cls-17{opacity:0.6;}.cls-18{opacity:0.7;}.cls-19{fill:#a9fffe;}.cls-20{fill:#a8fefd;}.cls-21{fill:#a7fdfc;}.cls-22{fill:#a6fcfb;}.cls-23{fill:#a4faf9;}.cls-24{fill:#a3f9f8;}.cls-25{fill:#a2f8f7;}.cls-26{fill:#a1f7f6;}.cls-27{opacity:0.8;}.cls-28{fill:url(#linear-gradient-2);}.cls-29{fill:url(#linear-gradient-3);}.cls-30{fill:url(#linear-gradient-4);}.cls-31{fill:url(#linear-gradient-5);}.cls-32{fill:url(#linear-gradient-6);}.cls-33{fill:url(#linear-gradient-7);}.cls-34{fill:url(#linear-gradient-8);}.cls-35{fill:url(#linear-gradient-9);}.cls-36{fill:url(#linear-gradient-10);}.cls-37{fill:url(#linear-gradient-11);}.cls-38{fill:url(#linear-gradient-12);}.cls-39{fill:url(#linear-gradient-13);}.cls-40{fill:url(#linear-gradient-14);}.cls-41{fill:#b53892;}.cls-42{fill:#111114;}.cls-43{fill:#efb185;}.cls-44{fill:#e6a376;}.cls-45{fill:#9dbcc9;}.cls-46{fill:#cae0ea;}.cls-47{fill:#09294f;}.cls-48{fill:#16365c;}.cls-49{fill:#dd9569;}.cls-50{fill:#131c24;}.cls-51{fill:#1d2833;}.cls-52{fill:#f1b287;}</style><linearGradient id="linear-gradient" x1="9.87" y1="27.46" x2="36.92" y2="27.46" gradientTransform="matrix(-1, 0, 0, 1, 50.29, 0)" gradientUnits="userSpaceOnUse"><stop offset="0" stop-color="#fff2c9"/><stop offset="1" stop-color="#ffb7bb"/></linearGradient><linearGradient id="linear-gradient-2" x1="47.97" y1="25.94" x2="-4.02" y2="-10.84" gradientTransform="matrix(1, 0, 0, 1, 0, 0)" xlink:href="#linear-gradient"/><linearGradient id="linear-gradient-3" x1="49.07" y1="24.39" x2="-2.92" y2="-12.39" gradientTransform="matrix(1, 0, 0, 1, 0, 0)" xlink:href="#linear-gradient"/><linearGradient id="linear-gradient-4" x1="50.16" y1="22.85" x2="-1.83" y2="-13.93" gradientTransform="matrix(1, 0, 0, 1, 0, 0)" xlink:href="#linear-gradient"/><linearGradient id="linear-gradient-5" x1="36.42" y1="47.24" x2="-15.57" y2="10.47" gradientTransform="matrix(1, 0, 0, 1, 0, 0)" xlink:href="#linear-gradient"/><linearGradient id="linear-gradient-6" x1="37.83" y1="45.24" x2="-14.15" y2="8.47" gradientTransform="matrix(1, 0, 0, 1, 0, 0)" xlink:href="#linear-gradient"/><linearGradient id="linear-gradient-7" x1="38.83" y1="43.83" x2="-13.15" y2="7.05" gradientTransform="matrix(1, 0, 0, 1, 0, 0)" xlink:href="#linear-gradient"/><linearGradient id="linear-gradient-8" x1="77.16" y1="40.97" x2="27.43" y2="5.79" gradientTransform="matrix(1, 0.08, -0.08, 1, 1.26, -0.42)" xlink:href="#linear-gradient"/><linearGradient id="linear-gradient-9" x1="78.92" y1="39.65" x2="28.28" y2="3.82" gradientTransform="matrix(1, 0.08, -0.08, 1, 1.26, -0.42)" xlink:href="#linear-gradient"/><linearGradient id="linear-gradient-10" x1="78.63" y1="37.28" x2="29.61" y2="2.6" gradientTransform="matrix(1, 0.08, -0.08, 1, 1.26, -0.42)" xlink:href="#linear-gradient"/><linearGradient id="linear-gradient-11" x1="80.15" y1="36.41" x2="30.06" y2="0.97" gradientTransform="matrix(1, 0.08, -0.08, 1, 1.26, -0.42)" xlink:href="#linear-gradient"/><linearGradient id="linear-gradient-12" x1="56.55" y1="40.64" x2="4.56" y2="3.86" gradientTransform="matrix(1, 0, 0, 1, 0, 0)" xlink:href="#linear-gradient"/><linearGradient id="linear-gradient-13" x1="57.51" y1="39.29" x2="5.52" y2="2.51" gradientTransform="matrix(1, 0, 0, 1, 0, 0)" xlink:href="#linear-gradient"/><linearGradient id="linear-gradient-14" x1="58.46" y1="37.94" x2="6.48" y2="1.16" gradientTransform="matrix(1, 0, 0, 1, 0, 0)" xlink:href="#linear-gradient"/></defs><g id="Layer_2" data-name="Layer 2"><g id="Layer_1-2" data-name="Layer 1"><g class="cls-1"><polygon points="50.29 38 39.18 44.45 13.53 29.64 24.91 22.95 50.29 38"/></g><path class="cls-2" d="M40.36,44.24l.06-18.47.71-.41-.06,18.47a.48.48,0,0,1-.2.44l-.7.41A.49.49,0,0,0,40.36,44.24Z"/><polygon class="cls-2" points="40.42 25.77 41.13 25.36 41.13 22.86 40.42 23.28 40.42 25.77"/><path class="cls-3" d="M13.43,10.19l27,15.58-.06,18.47c0,.43-.3.61-.68.39L14.06,29.84a1.51,1.51,0,0,1-.68-1.18Z"/><path class="cls-4" d="M39.74,22.1a1.45,1.45,0,0,1,.68,1.18v2.49l-27-15.58V7.7c0-.44.3-.61.68-.39Z"/><path class="cls-2" d="M14,7.24l-.11,0h-.13l-.1,0h0l.71-.41h0l0,0h.17l.06,0h.08l.1,0L40.45,21.68l.13.09,0,0,.06.05s0,0,0,0l0,0,0,0,.06.07,0,0v0l0,0,0,.06,0,.06h0s0,0,0,0l0,.06,0,.06h0a.14.14,0,0,1,0,.06l0,.07s0,0,0,0v0s0,.05,0,.08v.09a.66.66,0,0,1,0,.14l-.71.41a.86.86,0,0,0,0-.16v0a.83.83,0,0,0,0-.15v0l-.06-.16h0l-.08-.16h0l-.09-.14h0a.63.63,0,0,0-.1-.12l0,0-.09-.08,0,0a.51.51,0,0,0-.13-.09L14.12,7.31,14,7.25Z"/><path class="cls-2" d="M38.73,23.85a1.38,1.38,0,0,1-.63-1.08c0-.4.28-.56.63-.36a1.36,1.36,0,0,1,.62,1.08c0,.4-.28.56-.62.36Z"/><path class="cls-2" d="M36.83,22.75a1.38,1.38,0,0,1-.62-1.08c0-.39.28-.55.63-.35a1.37,1.37,0,0,1,.62,1.07c0,.4-.28.56-.63.36Z"/><path class="cls-2" d="M35,21.68a1.38,1.38,0,0,1-.62-1.08c0-.4.28-.56.63-.36a1.4,1.4,0,0,1,.62,1.08c0,.4-.28.56-.63.36Z"/><g class="cls-5"><g class="cls-6"><path class="cls-7" d="M46.26,33.29l1.28.74a.24.24,0,0,0,.26,0l1.29-.74a.27.27,0,0,0,0-.46l-1.28-.74a.24.24,0,0,0-.26,0l-1.29.75A.26.26,0,0,0,46.26,33.29Z"/></g><g class="cls-8"><path class="cls-7" d="M46.26,31.78l1.28.75a.3.3,0,0,0,.26,0l1.29-.75a.26.26,0,0,0,0-.45l-1.28-.74a.24.24,0,0,0-.26,0l-1.29.74A.26.26,0,0,0,46.26,31.78Z"/></g><g class="cls-9"><path class="cls-7" d="M46.26,30.28l1.28.74a.24.24,0,0,0,.26,0l1.29-.74a.26.26,0,0,0,0-.45l-1.28-.75a.3.3,0,0,0-.26,0l-1.29.75A.26.26,0,0,0,46.26,30.28Z"/></g><g class="cls-10"><path class="cls-7" d="M46.26,28.77l1.28.75a.24.24,0,0,0,.26,0l1.29-.75a.26.26,0,0,0,0-.45l-1.28-.74a.24.24,0,0,0-.26,0l-1.29.74A.26.26,0,0,0,46.26,28.77Z"/></g><g class="cls-11"><path class="cls-7" d="M46.26,27.27l1.28.74a.24.24,0,0,0,.26,0l1.29-.74a.26.26,0,0,0,0-.45l-1.28-.74a.24.24,0,0,0-.26,0l-1.29.74A.26.26,0,0,0,46.26,27.27Z"/></g><g class="cls-12"><path class="cls-7" d="M46.26,25.77l1.28.74a.24.24,0,0,0,.26,0l1.29-.74a.26.26,0,0,0,0-.45l-1.28-.75a.24.24,0,0,0-.26,0l-1.29.75A.26.26,0,0,0,46.26,25.77Z"/></g><g class="cls-13"><path class="cls-7" d="M46.26,24.26l1.28.75a.3.3,0,0,0,.26,0l1.29-.75a.26.26,0,0,0,0-.45l-1.28-.74a.24.24,0,0,0-.26,0l-1.29.74A.26.26,0,0,0,46.26,24.26Z"/></g><path class="cls-7" d="M46.26,22.76l1.28.74a.24.24,0,0,0,.26,0l1.29-.74a.26.26,0,0,0,0-.45l-1.28-.75a.3.3,0,0,0-.26,0l-1.29.75A.26.26,0,0,0,46.26,22.76Z"/></g><path class="cls-7" d="M46.26,22.76l1.28.74a.24.24,0,0,0,.26,0l1.29-.74a.26.26,0,0,0,0-.45l-1.28-.75a.3.3,0,0,0-.26,0l-1.29.75A.26.26,0,0,0,46.26,22.76Z"/><g class="cls-5"><g class="cls-6"><path class="cls-14" d="M9.66,8l1.13.66a.24.24,0,0,0,.23,0L12.17,8a.23.23,0,0,0,0-.4L11,6.93a.21.21,0,0,0-.23,0l-1.14.67A.23.23,0,0,0,9.66,8Z"/></g><g class="cls-8"><path class="cls-14" d="M9.66,7l1.13.66a.24.24,0,0,0,.23,0L12.17,7a.23.23,0,0,0,0-.4L11,5.94a.24.24,0,0,0-.23,0L9.66,6.6A.23.23,0,0,0,9.66,7Z"/></g><g class="cls-9"><path class="cls-14" d="M9.66,6l1.13.66a.24.24,0,0,0,.23,0L12.17,6a.23.23,0,0,0,0-.4L11,5a.2.2,0,0,0-.23,0l-1.14.66A.23.23,0,0,0,9.66,6Z"/></g><g class="cls-10"><path class="cls-14" d="M9.66,5l1.13.66a.24.24,0,0,0,.23,0L12.17,5a.23.23,0,0,0,0-.4L11,4a.24.24,0,0,0-.23,0l-1.14.66A.23.23,0,0,0,9.66,5Z"/></g><g class="cls-11"><path class="cls-14" d="M9.66,4.05l1.13.66a.24.24,0,0,0,.23,0l1.15-.66a.23.23,0,0,0,0-.4L11,3a.2.2,0,0,0-.23,0l-1.14.66A.23.23,0,0,0,9.66,4.05Z"/></g><g class="cls-12"><path class="cls-14" d="M9.66,3.06l1.13.66a.24.24,0,0,0,.23,0l1.15-.66a.23.23,0,0,0,0-.4L11,2a.24.24,0,0,0-.23,0l-1.14.66A.23.23,0,0,0,9.66,3.06Z"/></g><g class="cls-13"><path class="cls-14" d="M9.66,2.08l1.13.66a.24.24,0,0,0,.23,0l1.15-.66a.23.23,0,0,0,0-.4L11,1a.2.2,0,0,0-.23,0l-1.14.66A.23.23,0,0,0,9.66,2.08Z"/></g><path class="cls-14" d="M9.66,1.09l1.13.66a.24.24,0,0,0,.23,0l1.15-.66a.23.23,0,0,0,0-.4L11,0a.24.24,0,0,0-.23,0L9.66.69A.23.23,0,0,0,9.66,1.09Z"/></g><path class="cls-15" d="M9.66,1.09l1.13.66a.24.24,0,0,0,.23,0l1.15-.66a.23.23,0,0,0,0-.4L11,0a.24.24,0,0,0-.23,0L9.66.69A.23.23,0,0,0,9.66,1.09Z"/><g class="cls-5"><polygon class="cls-16" points="19.91 21.14 19.91 21.61 25 24.54 25 24.07 19.91 21.14"/></g><g class="cls-17"><polygon class="cls-16" points="9.26 16.27 9.25 19.62 16.47 23.8 16.48 20.45 9.26 16.27"/></g><g class="cls-5"><path class="cls-16" d="M17.2,27.49,8.69,22.58l0-7.44,8.51,4.91ZM9.25,19.62l7.22,4.18V20.45L9.26,16.28v3.34Z"/></g><g class="cls-5"><polygon class="cls-16" points="8.71 13.8 8.71 14.36 17.22 19.28 17.22 18.71 8.71 13.8"/></g><g class="cls-5"><polygon class="cls-16" points="19.9 25.36 19.89 28.68 24.98 31.61 24.99 28.29 19.9 25.36"/></g><g class="cls-17"><path class="cls-16" d="M25.53,32.63,19,28.88l0-11.43,6.49,3.75Zm-5.64-4L25,31.61V28.29L19.9,25.36v3.32Zm0-9.39L25,22.22v-.47l-5.09-2.93v.47Zm0,2.32L25,24.54v-.47l-5.08-2.93v.47Zm0,1.05L25,25.6v-.47l-5.09-2.94v.47Zm0-2.32L25,23.27v-.46l-5.08-2.94v.47Z"/></g><g class="cls-18"><path class="cls-16" d="M26.2,33.63,7.89,23.06l0-14.37L26.24,19.26ZM19,28.88l6.5,3.75,0-11.43-6.49-3.75,0,11.43ZM8.69,22.58l8.51,4.91,0-7.44L8.71,15.14l0,7.44Zm0-11.74,17.09,9.87V19.44L8.72,9.58v1.26Zm0,1.2L17.23,17v-.56L8.72,11.48V12Zm0,1.06L17.23,18v-.56L8.72,12.53v.57Zm0,1.26,8.51,4.92v-.57L8.71,13.8v.56Z"/></g><g class="cls-5"><polygon class="cls-16" points="8.71 12.53 8.71 13.1 17.23 18.01 17.23 17.45 8.71 12.53"/></g><g class="cls-5"><polygon class="cls-16" points="25.56 20.22 16.28 14.86 16.29 14.26 25.56 19.62 25.56 20.22"/></g><g class="cls-5"><path class="cls-16" d="M25.81,20.71V19.44L8.72,9.58v1.26ZM9.06,10.09l3.67,2.12v.6L9.06,10.69v-.6Zm7.22,4.17,9.28,5.36v.6l-9.28-5.36v-.6Z"/></g><g class="cls-5"><polygon class="cls-16" points="9.06 10.09 9.06 10.69 12.73 12.81 12.73 12.21 9.06 10.09"/></g><g class="cls-5"><polygon class="cls-16" points="8.72 11.48 8.72 12.04 17.23 16.95 17.23 16.39 8.72 11.48"/></g><g class="cls-5"><polygon class="cls-16" points="19.91 22.19 19.91 22.66 24.99 25.6 25 25.13 19.91 22.19"/></g><g class="cls-5"><polygon class="cls-16" points="19.92 19.87 19.92 20.34 25 23.27 25 22.81 19.92 19.87"/></g><g class="cls-5"><polygon class="cls-16" points="19.92 18.82 19.92 19.29 25 22.22 25 21.75 19.92 18.82"/></g><g class="cls-5"><polygon class="cls-16" points="29.95 12.51 29.95 13.02 35.5 16.22 35.5 15.71 29.95 12.51"/><polygon class="cls-16" points="29.94 17.12 29.93 20.74 35.48 23.94 35.49 20.32 29.94 17.12"/><g class="cls-17"><path class="cls-16" d="M36.08,25.05,29,21,29,8.49l7.08,4.09Zm-6.15-4.31,5.55,3.2V20.32l-5.55-3.2v3.62Zm0-10.25,5.55,3.2v-.51L30,10v.52ZM30,13l5.55,3.2v-.51L30,12.51V13Zm0,1.15,5.55,3.21v-.51L30,13.66v.51Zm0-2.53,5.55,3.2v-.51L30,11.13v.51Z"/></g><path class="cls-16" d="M28.32,21.24l8.49,4.9,0-15.68L28.32,5.53V6l8.07,4.66V12L28.32,7.38Zm7.76,3.81L29,21,29,8.49l7.08,4.09Z"/><polygon class="cls-16" points="28.32 6.34 36.12 10.85 36.12 11.5 28.32 7 28.32 6.34"/><polygon class="cls-16" points="28.32 7 36.12 11.5 36.12 10.85 28.32 6.34 28.32 6 36.39 10.66 36.38 12.04 28.32 7.38 28.32 7"/><polygon class="cls-16" points="29.95 13.66 29.95 14.17 35.5 17.38 35.5 16.86 29.95 13.66"/><polygon class="cls-16" points="29.96 11.13 29.96 11.64 35.51 14.84 35.51 14.33 29.96 11.13"/><polygon class="cls-16" points="29.96 9.97 29.96 10.49 35.51 13.69 35.51 13.18 29.96 9.97"/></g><g class="cls-5"><polygon class="cls-16" points="30.37 30.6 30.36 33.95 37.58 38.12 37.59 34.77 30.37 30.6"/><g class="cls-17"><path class="cls-16" d="M38.31,41.82,29.8,36.9l0-7.44,8.51,4.92Zm-8-7.87,7.22,4.17V34.77L30.37,30.6V34Z"/></g><polygon class="cls-16" points="29.82 28.13 29.82 28.69 38.33 33.6 38.33 33.04 29.82 28.13"/><g class="cls-18"><path class="cls-16" d="M38.78,28.64,29,23l0,14.36L38.78,43V30.34l-9-5.17V23.9l9,5.17Zm-9,.82,8.51,4.92,0,7.44L29.8,36.9Zm0-1.33L38.33,33v.56l-8.51-4.91Zm0-1.27,8.51,4.91v.57l-8.52-4.92Zm0-1.06,8.51,4.92v.56l-8.51-4.91Z"/></g><polygon class="cls-16" points="29.82 26.86 29.82 27.42 38.34 32.34 38.34 31.77 29.82 26.86"/><path class="cls-16" d="M29.83,25.17l9,5.17V29.07l-9-5.17Zm.34-.16v-.59l3.67,2.12v.59Z"/><polygon class="cls-16" points="30.17 24.42 30.17 25.01 33.84 27.14 33.84 26.54 30.17 24.42"/><polygon class="cls-16" points="29.83 25.8 29.83 26.37 38.34 31.28 38.34 30.72 29.83 25.8"/></g><g class="cls-18"><g class="cls-6"><path class="cls-19" d="M.09,31.91l.86.52a.19.19,0,0,0,.18,0L2,31.94a.18.18,0,0,0,0-.31l-.87-.52a.17.17,0,0,0-.17,0l-.89.49A.18.18,0,0,0,.09,31.91Z"/></g><g class="cls-8"><path class="cls-20" d="M.1,30.47,1,31a.17.17,0,0,0,.17,0L2,30.5a.18.18,0,0,0,0-.31l-.86-.52a.19.19,0,0,0-.18,0l-.88.49A.18.18,0,0,0,.1,30.47Z"/></g><g class="cls-9"><path class="cls-21" d="M.12,29l.86.52a.19.19,0,0,0,.18,0l.89-.49a.18.18,0,0,0,0-.31l-.86-.52a.19.19,0,0,0-.18,0l-.88.49A.18.18,0,0,0,.12,29Z"/></g><g class="cls-10"><path class="cls-22" d="M.14,27.59l.86.52a.19.19,0,0,0,.18,0l.88-.49a.18.18,0,0,0,0-.31l-.86-.52a.19.19,0,0,0-.18,0l-.89.49A.18.18,0,0,0,.14,27.59Z"/></g><g class="cls-11"><path class="cls-23" d="M.15,26.15l.87.52a.19.19,0,0,0,.18,0l.88-.49a.18.18,0,0,0,0-.31l-.87-.52a.17.17,0,0,0-.17,0l-.89.49A.18.18,0,0,0,.15,26.15Z"/></g><g class="cls-12"><path class="cls-24" d="M.17,24.71l.86.52a.19.19,0,0,0,.18,0l.89-.49a.18.18,0,0,0,0-.31l-.86-.52a.19.19,0,0,0-.18,0l-.88.49A.18.18,0,0,0,.17,24.71Z"/></g><g class="cls-13"><path class="cls-25" d="M.19,23.27l.86.52a.19.19,0,0,0,.18,0l.88-.49a.18.18,0,0,0,0-.31l-.86-.52a.19.19,0,0,0-.18,0L.19,23A.18.18,0,0,0,.19,23.27Z"/></g><path class="cls-26" d="M.21,21.83l.86.52a.19.19,0,0,0,.18,0l.88-.49a.18.18,0,0,0,0-.31L1.27,21a.17.17,0,0,0-.17,0l-.89.5A.17.17,0,0,0,.21,21.83Z"/></g><g class="cls-27"><path class="cls-25" d="M.21,21.83l.86.52a.19.19,0,0,0,.18,0l.88-.49a.18.18,0,0,0,0-.31L1.28,21a.19.19,0,0,0-.18,0l-.89.5A.17.17,0,0,0,.21,21.83Z"/></g><g class="cls-17"><path class="cls-28" d="M21.2,5v.35l-.35.21V5.2c0-.36-.12-.5-.4-.34a.86.86,0,0,0-.4.79V7.72c0,.35.13.49.4.33a.83.83,0,0,0,.4-.79V6.75l.35-.2V7a1.58,1.58,0,0,1-.76,1.43c-.52.3-.76,0-.76-.55v-2a1.56,1.56,0,0,1,.76-1.42C21,4.17,21.2,4.42,21.2,5Z"/><path class="cls-29" d="M23,4v.11l-.35.2V4.15c0-.36-.12-.5-.39-.34a.84.84,0,0,0-.39.78c0,.87,1.14.3,1.14,1.4a1.57,1.57,0,0,1-.77,1.42c-.51.3-.75,0-.75-.54V6.65l.35-.21v.25c0,.35.12.48.4.33a.85.85,0,0,0,.39-.79c0-.87-1.13-.3-1.13-1.4a1.54,1.54,0,0,1,.75-1.41C22.77,3.12,23,3.37,23,4Z"/><path class="cls-30" d="M24.81,2.92V3l-.35.21V3.11c0-.36-.12-.49-.39-.34a.84.84,0,0,0-.39.78c0,.87,1.14.3,1.14,1.4a1.57,1.57,0,0,1-.77,1.42c-.51.3-.75,0-.75-.54V5.61l.35-.21v.25c0,.35.12.49.39.33a.84.84,0,0,0,.4-.79c0-.87-1.13-.3-1.13-1.4a1.54,1.54,0,0,1,.75-1.41C24.57,2.08,24.81,2.33,24.81,2.92Z"/></g><g class="cls-17"><path class="cls-31" d="M7,26.66l-.56,2L6,28.88l.68-2.41L6.07,25l.39-.23L7,26l.53-1.86.35-.21-.63,2.26.68,1.62-.4.23Z"/><path class="cls-32" d="M9.46,26.89l-.36.21-.56-2.78v3.11l-.33.19V23.71l.53-.3.55,2.8.54-3.43.53-.31v3.91l-.36.21V23.44Z"/><path class="cls-33" d="M10.74,26.16V22.25l.38-.22v3.51l1-.56v.4Z"/></g><g class="cls-17"><path class="cls-34" d="M40.32,18.42l-.12,1.75-.35.19.28-3.9.34-.19L40.35,18l.75-.42.13-1.75.34-.19-.27,3.9-.34.19L41.08,18Z"/><path class="cls-35" d="M42.1,19.13l.25-3.5-.57.31,0-.4,1.48-.8,0,.39-.57.31-.25,3.5Z"/><path class="cls-36" d="M44.39,17.88l-.33.18-.3-2.82-.21,3.1-.3.17.27-3.9.48-.26.29,2.84.7-3.38.48-.26-.27,3.89-.32.18.21-3.13Z"/><path class="cls-37" d="M45.56,17.25l.27-3.9.34-.18-.24,3.5.88-.48,0,.39Z"/></g><g class="cls-17"><path class="cls-38" d="M50.69,36.74l-1.5.16v-.31L50.69,35v.32l-1.15,1.21,1.15-.11Z"/><path class="cls-39" d="M52.62,32.81l-1.33,4.68-.33.19L52.29,33Z"/><path class="cls-40" d="M52.89,35.15,54,33.94l-1.15.12v-.32l1.5-.16v.32l-1.5,1.57Z"/></g><g class="cls-5"><path class="cls-41" d="M20.23,18.74c-.71-.41-1.29-.09-1.29.73a2.82,2.82,0,0,0,1.28,2.22c.72.41,1.3.09,1.3-.73A2.83,2.83,0,0,0,20.23,18.74Z"/></g><g class="cls-5"><path class="cls-41" d="M20.23,19.31c-.46-.27-.83-.06-.83.47a1.79,1.79,0,0,0,.83,1.44c.46.27.83.06.83-.47A1.8,1.8,0,0,0,20.23,19.31Z"/></g><g class="cls-5"><path class="cls-41" d="M20.23,19.86c-.22-.12-.39,0-.39.23a.83.83,0,0,0,.39.67c.21.13.39,0,.39-.22A.86.86,0,0,0,20.23,19.86Z"/></g><g class="cls-5"><path class="cls-41" d="M24.5,23.88c-.72-.41-1.29-.08-1.3.74a2.82,2.82,0,0,0,1.29,2.22c.71.41,1.29.08,1.29-.74A2.84,2.84,0,0,0,24.5,23.88Z"/></g><g class="cls-5"><path class="cls-41" d="M24.49,24.45c-.46-.27-.83-.05-.83.48a1.84,1.84,0,0,0,.83,1.44c.46.26.84.05.84-.48A1.83,1.83,0,0,0,24.49,24.45Z"/></g><g class="cls-5"><path class="cls-41" d="M24.49,25c-.21-.13-.39,0-.39.22a.86.86,0,0,0,.39.68c.22.12.39,0,.4-.23A.84.84,0,0,0,24.49,25Z"/></g><path class="cls-42" d="M17.34,44.86s-.39.64.16.79.38-.19,1.58.11,1.06-.37,1-.51-.55-.33-.82-.4L18,44.54l-.64.12Z"/><path class="cls-43" d="M19.07,21.71a5.81,5.81,0,0,1,.19-1,1.68,1.68,0,0,1,1.06-.94c.33-.06.14.29-.16.68a.7.7,0,0,0-.24.66,2.76,2.76,0,0,1-.1.89C19.75,22.19,19.07,21.71,19.07,21.71Z"/><path class="cls-44" d="M19.83,22a3.41,3.41,0,0,1,.26-.83c.19-.27-.07-.5.07-.68s.4-.59.3-.67c-.16.24-.56.17-.77.91A5.14,5.14,0,0,0,19.61,22C19.76,22,19.81,22,19.83,22Z"/><path class="cls-43" d="M19.58,21.93s.58-.75.72-1,.14-.49.07-.47-.53.74-.73.52S19.64,21.8,19.58,21.93Z"/><path class="cls-45" d="M13.84,25.46s.07,1.05,1.4.68,3.71-1.33,4-2a14.53,14.53,0,0,0,.61-2.36s-.64.21-.88-.31l-1,2.13S13.77,24.73,13.84,25.46Z"/><path class="cls-46" d="M13.84,25.46c-.07-.73,4.1-1.83,4.1-1.83l1-2.13a.58.58,0,0,0,.38.33,11.58,11.58,0,0,1-.54,2c-.31.64-2.7,1.61-4,2a1.43,1.43,0,0,1-.87,0A.9.9,0,0,1,13.84,25.46Z"/><path class="cls-42" d="M16,42.46s.5.08.38.37-.69.72-.77.9-.54.83-.69.77-.55,0-.5-.71A1.62,1.62,0,0,1,16,42.46Z"/><path class="cls-47" d="M14.45,32.73s0,4.28,0,4.76-.53,4.29-.21,5.95a1.19,1.19,0,0,0,1.76,0s.26-4.76.5-5.84a30.45,30.45,0,0,0,.16-4.35Z"/><path class="cls-47" d="M16.09,33.34s.21,2.76.43,5.51c0,0,.14,5.44.27,6.22,0,0,1.76.44,1.93-.39,0,0,0-4.79,0-5.79a23.11,23.11,0,0,0-.25-5.41C18.08,31.87,16.09,33.34,16.09,33.34Z"/><path class="cls-48" d="M16.79,45.07c-.13-.78-.27-6.22-.27-6.22-.14-1.85-.29-3.71-.37-4.72l1.09.26a14.17,14.17,0,0,1,.66,5.13c-.09,2.38-.13,4.73-.14,5.67A4.57,4.57,0,0,1,16.79,45.07Z"/><path class="cls-48" d="M14.23,43.44c-.32-1.66.21-5.46.21-5.95s0-4.36,0-4.73l1,.72a23.88,23.88,0,0,1,0,4.81c-.28,1.59-.1,4.68-.23,5.56A1.5,1.5,0,0,1,14.23,43.44Z"/><path class="cls-46" d="M14.15,25.09s-.84.42-.37,1.85a11.39,11.39,0,0,1,.79,2.89,24.62,24.62,0,0,1-.34,2.69s-.14,1.17,2.55,1.87c0,0,2.21.23,1.85-1.23a19.92,19.92,0,0,1-.45-4.37,2,2,0,0,0-1-2.44C15.77,25.59,15,25,14.15,25.09Z"/><path class="cls-46" d="M14.77,25.15a12.22,12.22,0,0,1,2.4,1.2,2,2,0,0,1,1,2.44,19.92,19.92,0,0,0,.45,4.37c.29,1.17-1.08,1.26-1.63,1.25C14.53,32.69,14.75,28.24,14.77,25.15Z"/><path class="cls-43" d="M15.15,24.44A2.7,2.7,0,0,1,15,25.75c-.25.46,1.64.87,1.69.45a1.82,1.82,0,0,1,.09-1.56C17,24.21,15.15,24.44,15.15,24.44Z"/><path class="cls-49" d="M15,25.78a2.52,2.52,0,0,0,.19-1.17l1.38.69h0c-.05,0-1,.25-1.19.92C15.08,26.1,14.88,25.94,15,25.78Z"/><path class="cls-43" d="M17.14,22.3a3.44,3.44,0,0,1,.24,1.36c-.06.68,0,.82,0,1.12a.64.64,0,0,1-.15.44,1.19,1.19,0,0,1-1.22.07,1.85,1.85,0,0,1-1.15-2.11A1.47,1.47,0,0,1,17.14,22.3Z"/><path class="cls-44" d="M14.88,24.13a12.27,12.27,0,0,1,1-1.78,2.23,2.23,0,0,1,.49-.33,1.55,1.55,0,0,1,.79.28,4.12,4.12,0,0,1,.15.48c-.17.18-.51.4-.56.56a2,2,0,0,0,.05,1.19c.12.26-.34.62-.24.85v0a2,2,0,0,1-.54-.12A2.09,2.09,0,0,1,14.88,24.13Z"/><path class="cls-50" d="M17.91,21.55c.22-.14-.46,1.08-1.07,1.38-.37.18-.34.78-.32.89a3.56,3.56,0,0,1,.08.68c-.09.13-.38-.26-.52-.23-.35.06-.21.39.11.73s-.55.52-1,.22c-.22-.16-.3-.26-.59-.83-.41-.84-.53-2.07.55-2.37S17.29,21.93,17.91,21.55Z"/><path class="cls-51" d="M15.22,25.22c-.22-.16-.3-.26-.59-.83-.41-.84-.56-1.84.43-2.37s1.72,0,2.85-.47A3.32,3.32,0,0,1,16,22.84c-.52.1-.58.31-.55.87s-.12,1.26.79,1.56A.93.93,0,0,1,15.22,25.22Z"/><path class="cls-45" d="M16.55,26l.64.41s-2,.66-2.51-.28a.56.56,0,0,1,.35-.67S15.1,26.18,16.55,26Z"/><path class="cls-52" d="M23.36,25.93s.48-.55.46-.73.24-.27.24-.05a1.07,1.07,0,0,1-.12.44s.64-.56.52-.79.53.41.37.8-.25.85-1.29,1A.81.81,0,0,1,23.36,25.93Z"/><path class="cls-45" d="M17.09,26.87s-.4.93.89,1.21,3.52.65,4.07.24S24,26.6,24,26.6s-.64-.2-.61-.75l-2.09,1.29S17.36,26.22,17.09,26.87Z"/><path class="cls-46" d="M17.09,26.87c.27-.65,4.18.27,4.18.27l2.09-1.29a.53.53,0,0,0,.07.31,17.35,17.35,0,0,1-2.18,1.51A28.41,28.41,0,0,1,17,27.19.9.9,0,0,1,17.09,26.87Z"/></g></g></svg>